<?xml version="1.0" standalone="no"?><!DOCTYPE svg PUBLIC "-//W3C//DTD SVG 1.1//EN" "http://www.w3.org/Graphics/SVG/1.1/DTD/svg11.dtd"><svg t="1500262100719" class="icon" style="" viewBox="0 0 1024 1024" version="1.1" xmlns="http://www.w3.org/2000/svg" p-id="4018" xmlns:xlink="http://www.w3.org/1999/xlink" width="200" height="200"><defs><style type="text/css"></style></defs><path style="fill:#ee8e38;" d="M517.741771 497.445516c-59.657728-56.964386-61.838394-151.503553-4.874007-211.157187 56.964386-59.652612 151.503553-61.838394 211.157187-4.874007 59.657728 56.964386 61.838394 151.503553 4.874007 211.157187C671.933549 552.22412 577.394383 554.409902 517.741771 497.445516L517.741771 497.445516zM695.661973 460.83469c39.439244-41.300638 37.924751-106.750279-3.375887-146.184407-41.295522-39.438221-106.745163-37.924751-146.184407 3.371794-39.438221 41.300638-37.924751 106.750279 3.37691 146.184407C590.774111 503.643682 656.223752 502.139421 695.661973 460.83469L695.661973 460.83469zM477.015208 689.815825 370.370329 801.496393c27.536146 26.294876 28.542056 69.919443 2.24718 97.454566-26.298969 27.541263-69.918419 28.547173-97.454566 2.252297l-61.324694 55.717999c0 0-72.238254 11.661597-105.4691-20.070104-33.235962-31.737842-39.787168-118.443599-39.787168-118.443599l258.871909-271.40434c-66.378803-123.574457-49.304939-280.396131 52.475142-387.659087 53.782927-56.679907 117.990275-83.078137 165.552523-90.179882 45.403073-6.779404 51.532677 33.060977 13.005198 40.941458-52.225455 10.682293-105.07308 37.651528-145.322783 80.975243-83.124186 89.472777-100.972693 216.309534-51.939953 320.561923l24.24724 41.152259L127.107933 823.363424c0 0 0.620124 52.300156 18.11559 69.00563 15.643282 14.94027 64.966641 10.327206 64.966641 10.327206l63.475683-66.465784 33.234939 31.731702c9.18315 8.772804 23.714098 8.439206 32.486902-0.744967 8.766664-9.188266 8.433066-23.718191-0.750083-32.485879l-33.240055-31.742958 164.398234-172.160012 40.987506 23.626094c106.397239 44.168965 233.474472 21.655206 317.820486-66.676585 109.537765-114.712625 109.278869-300.80188-9.373485-406.070412-46.656623-41.393759-108.025319-66.660212-163.988912-73.791633-34.359552-4.377704-29.333072-46.406936 10.573823-42.516326 76.257801 7.43432 140.618645 40.555671 185.147814 83.071997 133.069715 127.068024 137.938606 337.968361 10.871605 471.040123C759.717871 726.453257 603.518367 750.423181 477.015208 689.815825L477.015208 689.815825zM477.015208 689.815825" p-id="4019"></path></svg>