<?xml version="1.0" standalone="no"?><!DOCTYPE svg PUBLIC "-//W3C//DTD SVG 1.1//EN" "http://www.w3.org/Graphics/SVG/1.1/DTD/svg11.dtd"><svg t="1500258830588" class="icon" style="" viewBox="0 0 1024 1024" version="1.1" xmlns="http://www.w3.org/2000/svg" p-id="1009" xmlns:xlink="http://www.w3.org/1999/xlink" width="200" height="200"><defs><style type="text/css"></style></defs><path  style="fill:#ee8e38;" d="M765.693694 913.297297c18.45045-21.525526 30.750751-46.126126 30.75075-73.801802V218.33033c0-27.675676-12.3003-55.351351-30.75075-76.876877-21.525526-21.525526-46.126126-30.750751-76.876877-30.75075H362.858859c-27.675676 0-55.351351 12.3003-76.876877 30.75075-21.525526 21.525526-30.750751 46.126126-30.750751 76.876877v621.165165c0 27.675676 12.3003 55.351351 30.750751 76.876877 21.525526 21.525526 46.126126 30.750751 76.876877 30.750751h325.957958c27.675676 0 55.351351-12.3003 76.876877-33.825826z m-239.855856-89.177177c27.675676 0 52.276276 24.600601 52.276276 52.276276 0 27.675676-24.600601 52.276276-52.276276 52.276277-27.675676 0-52.276276-24.600601-52.276276-52.276277 0-30.750751 24.600601-52.276276 52.276276-52.276276z m-233.705706-12.3003V212.18018c0-18.45045 6.15015-33.825826 18.450451-46.126126 12.3003-12.3003 30.750751-18.45045 46.126126-18.45045h332.108108c18.45045 0 33.825826 6.15015 46.126126 18.45045 12.3003 12.3003 18.45045 30.750751 18.45045 46.126126v596.564565h-461.261261v3.075075z" p-id="1010"></path></svg>