<?xml version="1.0" standalone="no"?><!DOCTYPE svg PUBLIC "-//W3C//DTD SVG 1.1//EN" "http://www.w3.org/Graphics/SVG/1.1/DTD/svg11.dtd"><svg t="1504581259975" class="icon" style="" viewBox="0 0 1024 1024" version="1.1" xmlns="http://www.w3.org/2000/svg" p-id="4834" xmlns:xlink="http://www.w3.org/1999/xlink" width="200" height="200"><defs><style type="text/css"></style></defs><path style="fill:#ee8e38;" d="M1891.149229 2913.352747c0 0-5.284575 24.762987-22.513681 34.792411 0 0 34.697676 0.312108 50.144108-27.629267" p-id="4835"></path><path style="fill:#ee8e38;" d="M508.30571 211.635071c-208.000831 0-388.285275 121.147174-476.862284 298.025651C120.021458 686.568874 300.304878 807.687396 508.30571 807.687396S896.561307 686.568874 985.167993 509.660722C896.590984 332.782246 716.307564 211.635071 508.30571 211.635071M743.428364 369.677551c56.031436 35.732829 103.508696 83.626629 139.183671 139.983171-35.674975 56.356542-83.153259 104.249319-139.183671 140.012847-70.397211 44.912909-151.701278 68.605517-235.122654 68.605517s-164.726466-23.692608-235.122654-68.605517c-56.031436-35.763528-103.508696-83.656305-139.183671-140.012847 35.674975-56.326866 83.153259-104.249319 139.183671-139.983171 3.63596-2.324952 7.331273-4.559852 11.057288-6.765077-9.299174 25.421996-14.365775 52.899814-14.365775 81.569784 0 131.697461 106.75783 238.421134 238.431142 238.421134s238.431142-106.72265 238.431142-238.421134c0-28.66997-5.066602-56.118112-14.336098-81.540108C736.09709 365.118722 739.792404 367.353622 743.428364 369.677551M508.30571 414.679487c0 49.382711-40.026255 89.408309-89.412062 89.408309s-89.412062-40.024575-89.412062-89.408309c0-49.353035 40.026255-89.408309 89.412062-89.408309S508.30571 365.326453 508.30571 414.679487" p-id="4836"></path></svg>